<?xml version="1.0" encoding="UTF-8"?>
<!DOCTYPE svg PUBLIC "-//W3C//DTD SVG 1.1//EN" "http://www.w3.org/Graphics/SVG/1.1/DTD/svg11.dtd">
<!-- Creator: CorelDRAW X5 -->
<svg xmlns="http://www.w3.org/2000/svg" xml:space="preserve" width="9in" height="9in" shape-rendering="geometricPrecision" text-rendering="geometricPrecision" image-rendering="optimizeQuality" fill-rule="evenodd" clip-rule="evenodd"
viewBox="0 0 9000 9000"
 xmlns:xlink="http://www.w3.org/1999/xlink">
 <g id="silver">
  <metadata id="CorelCorpID_0Corel-Layer"/>
  <polygon fill="none" points="3279,5191 3290,5198 "/>
  <line fill="none" x1="4761" y1="6584" x2="4761" y2= "6584" />
  <polygon fill="none" points="2414,4731 2403,4725 "/>
  <polygon fill="none" points="2403,4725 2392,4720 "/>
  <polygon fill="silver" points="6187,3860 6176,3854 "/>
  <polygon fill="none" points="5704,3915 5715,3922 "/>
  <path fill="none" d="M2747 4498l2 -2c0,0 -2,1 -2,2z"/>
  <path fill="none" d="M2425 4742l2 -2c0,0 -2,1 -2,2z"/>
  <path fill="none" d="M5471 4376l2 -2c0,0 -2,1 -2,2z"/>
  <path fill="none" d="M5521 3832l2 -2c0,0 -2,1 -2,2z"/>
  <path fill="none" d="M2436 4748l2 -2c0,0 -2,1 -2,2z"/>
  <path fill="none" d="M5743 3937c1,1 2,-2 2,-2l0 0c0,0 -2,1 -2,2z"/>
  <path fill="none" d="M5538 3838c1,1 2,-2 2,-2l0 0c0,0 -2,1 -2,2z"/>
  <path fill="none" d="M5721 3926c1,1 2,-2 2,-2l0 0c0,0 -2,1 -2,2z"/>
  <path fill="none" d="M5565 3849c1,1 2,-2 2,-2l0 0c0,0 -2,1 -2,2z"/>
  <path fill="none" d="M5732 3932c1,1 2,-2 2,-2l0 0c0,0 -2,1 -2,2z"/>
  <path fill="none" d="M5576 3854c1,1 2,-2 2,-2l0 0c0,0 -2,1 -2,2z"/>
  <path fill="none" d="M5587 3860c1,1 2,-2 2,-2l0 0c0,0 -2,1 -2,2z"/>
  <polygon fill="none" points="2414,4731 2414,4736 2420,4732 "/>
  <polygon fill="#C1C1C1" points="2708,4331 2708,4337 2714,4332 "/>
  <polygon fill="none" points="4422,6701 4417,6701 4421,6707 "/>
  <polygon fill="none" points="6525,4287 6525,4293 6532,4288 "/>
  <polygon fill="none" points="4761,6584 4755,6584 4760,6591 "/>
  <polygon fill="none" points="5371,6556 5377,6556 5372,6550 "/>
  <polygon fill="none" points="5604,3865 5604,3860 5598,3864 "/>
  <polygon fill="none" points="5016,3838 5016,3832 5010,3837 "/>
  <polygon fill="silver" points="3895,4725 3895,4731 3902,4726 "/>
  <polygon fill="none" points="2630,4709 2630,4703 2624,4708 "/>
  <polygon fill="#C1C1C1" points="4511,5019 4511,5025 4518,5020 "/>
  <polygon fill="none" points="6431,5064 6425,5064 6430,5070 "/>
  <polygon fill="#C1C1C1" points="6187,3860 6187,3865 6193,3861 "/>
  <polygon fill="none" points="5832,5319 5826,5319 5831,5325 "/>
  <polygon fill="none" points="5793,5730 5798,5730 5794,5723 "/>
  <path fill="none" d="M5504 3827c6,6 20,-8 6,-3 0,0 -16,-6 -6,3z"/>
  <path fill="none" d="M5482 3815c7,6 -12,6 17,6l0 -6 -17 0z"/>
  <path fill="none" d="M5604 4515c-7,-6 12,-6 -17,-6l0 6 17 0z"/>
  <path fill="none" d="M5704 3915c-11,-15 -27,-19 -44,-28 -17,-9 -33,-20 -55,-22l100 50z"/>
  <path fill="#C1C1C1" d="M3906 6412c89,0 157,-122 72,-122 -108,0 -157,122 -72,122z"/>
  <path fill="none" d="M5482 3815c-1,-1 -3,-3 -4,-2l-11 -6c-5,-2 -15,-5 -21,-7l-125 -30c-146,-24 -361,-61 -495,-132 2,26 3,26 55,45 26,9 50,16 82,24 65,16 104,32 158,52 57,21 98,28 168,37l192 19z"/>
  <path fill="none" d="M5682 6634c42,1 77,30 94,55 129,-68 79,-101 78,-166 -22,2 -171,109 -172,111z"/>
  <path fill="none" d="M5088 3388c19,-14 3,-2 15,-18l19 -19c103,-69 345,82 481,82l-21 -12c-7,-3 -16,-6 -24,-9 -88,-35 -289,-128 -371,-128 -35,0 -55,9 -74,26 -24,22 -26,36 -26,79z"/>
  <path fill="none" d="M3962 3316c0,160 274,295 403,341 40,14 150,58 191,59 -38,-57 -68,-46 -159,-80 -105,-40 -418,-195 -418,-303 0,-13 15,-27 22,-33 -15,0 -39,4 -39,17z"/>
  <path fill="silver" d="M5682 6634c1,-2 150,-109 172,-111 1,65 52,98 -78,166 -17,-26 -52,-55 -94,-55zm161 73c37,-15 63,-27 95,-55 81,-72 63,-131 42,-206 -9,-33 6,-53 -31,-53 -91,-1 -77,44 -110,72 -35,29 -68,51 -105,78 -92,66 -86,49 -86,97 -107,25 -5,155 133,155 111,0 205,-61 289,-117 90,-60 66,-40 61,-86l-34 18c-80,51 -161,101 -265,101l12 -5z"/>
  <path fill="none" d="M3701 5469c19,5 223,144 264,174 124,90 220,158 340,254 18,15 67,61 84,66l54 -46c55,-51 109,-92 167,-139 22,-18 220,-163 229,-176 -63,0 -87,-22 -115,-4 -28,17 -314,241 -334,271l-210 -162c-25,-19 -48,-35 -74,-54 -24,-18 -47,-34 -71,-51l-228 -155c-24,0 -33,3 -55,6 -8,1 -21,3 -29,4 -26,6 -7,-8 -22,12z"/>
  <path fill="none" d="M2392 4720c-12,-16 -153,-98 -178,-116 -14,-10 -14,-7 -16,-28 20,-5 18,-6 44,-6 -15,-13 -109,-55 -133,-67 -249,-123 -611,-270 -858,-374 -28,-12 -125,-54 -147,-59l16 -7c7,-2 11,-4 21,-6l125 -30c110,-26 269,-64 377,-83 24,-4 22,0 32,-17 7,-11 30,-58 33,-72l-425 91c-36,8 -68,17 -102,25l-311 83c8,7 8,7 20,13 63,29 295,117 366,145 66,26 129,54 192,80 212,87 552,238 754,339 31,15 60,31 92,46l96 42z"/>
  <path fill="none" d="M7796 4115c-1,1 -3,0 -4,2l-36 14 -621 217c7,28 6,43 6,78 19,-2 193,-69 224,-81 39,-15 78,-28 115,-40l344 -117c53,-18 188,-61 238,-73l-7 -4c-2,-1 -12,-5 -12,-5 -9,-3 -20,-5 -26,-7l-336 -92c-384,-97 -720,-166 -1111,-232 -26,-4 -80,-15 -106,-16l30 20c17,10 18,11 33,22 98,74 -16,37 234,83 310,56 565,112 867,187 54,14 113,31 168,43z"/>
  <path fill="#C1C1C1" d="M4422 6701l-1 6 -5 -6 6 0zm338 -117l-1 6 -5 -6 6 0zm610 -28l1 -6 5 6 -6 0zm-610 28l0 0zm610 -28c-45,39 -164,125 -109,203 13,18 44,36 75,36 54,-1 122,-46 158,-70 25,-16 42,-30 65,-46 24,-16 41,-33 65,-45l0 -42c-21,0 -38,17 -57,29 -32,19 -150,99 -181,68 -29,-29 58,-110 95,-133 14,-9 35,-21 45,-33 20,-25 3,-73 -62,-78l-150 6c48,-91 -132,0 -169,64 -24,42 2,54 19,69 -21,6 -34,22 -55,33l0 -28c-17,9 -28,15 -46,26 -16,10 -24,17 -41,26 -71,40 -276,123 -279,-2l107 -27c33,-9 68,-22 97,-36 65,-32 129,-66 129,-137 -22,-14 -12,-15 -45,-22 -126,-28 -313,54 -385,153 -2,3 -14,17 -14,17 -6,5 -184,106 -211,112 17,-32 52,-76 75,-113 8,-13 17,-26 23,-39 15,-34 7,-81 -31,-80 -68,3 -282,266 -389,209 0,-54 32,-69 66,-89 110,-63 292,-97 305,-155 -23,-35 -88,-32 -136,-20 -74,19 -116,44 -176,74 -22,11 -36,18 -54,29 -191,114 -75,281 24,257 45,-11 127,-55 167,-82 18,-12 31,-25 48,-36 -6,26 -53,93 -71,112 -13,15 -35,25 -53,36 -20,12 -36,23 -54,35 -58,38 -166,121 -166,194 14,10 22,19 47,14 122,-24 275,-225 306,-244 63,-39 161,-91 219,-131 13,-9 22,-18 39,-22 0,48 10,82 45,110 44,36 127,34 186,21 120,-27 213,-116 246,-125l6 22c41,-22 80,-53 119,-81 11,-8 18,-14 29,-21 23,-16 95,-20 130,-20z"/>
  <path fill="#C1C1C1" d="M2314 6290c0,-34 125,-60 164,-69 34,-7 65,-13 97,-19 57,-12 483,-6 565,-6l-28 22c-53,40 -115,106 -155,156 -88,110 -150,308 -44,414 129,129 424,3 566,-58l120 -57c3,121 127,134 216,89 25,-12 90,-51 110,-68 72,-65 73,-37 73,-101 -20,0 -27,13 -52,28 -35,21 -231,131 -231,25 0,-33 54,-54 109,-97 47,-36 84,-71 63,-114 -62,-15 -86,-3 -139,27 -148,86 -360,188 -521,233 -109,30 -214,58 -162,-112 16,-52 40,-96 66,-140 35,-58 77,-136 116,-189 11,-15 28,-53 47,-53l538 0 0 -92c-17,-9 -1148,-3 -1337,-3 -90,0 -128,0 -182,40 -81,60 -111,159 -62,243 58,99 238,220 238,50 0,-73 -178,-107 -178,-150z"/>
  <path fill="#C1C1C1" d="M5854 2273c46,0 101,12 145,16 165,16 133,-12 133,145 34,0 366,39 377,44l0 -183c-21,-11 -37,-25 -55,-39l-157 -115c-60,-45 -46,-36 -137,-46 -75,-9 -456,-59 -478,-50l-244 117 0 633c16,4 89,61 108,75 16,12 149,113 161,117l402 47c41,5 119,22 152,7l124 -59c20,-10 107,-52 124,-54l0 -211 -377 -44 0 144 -220 -25c-27,-4 -58,4 -58,-20l0 -499z"/>
  <path fill="#C1C1C1" d="M4167 2173l144 0 0 516 -117 0 0 216c219,0 427,11 644,11l0 -216 -117 0 0 -516 150 0 0 105 316 6 0 -316c-30,0 -636,-11 -667,-15l-337 -7c-118,0 -217,-6 -333,-6l0 316 316 6 0 -100z"/>
  <path fill="none" d="M6187 3860l6 1 -6 5 0 -6zm0 0l-11 -6 11 6zm-11 -6c-42,-3 -80,-28 -120,-41 -104,-34 -205,-75 -312,-105l-59 -19c-1,0 -2,-1 -3,-2l44 -11c-45,-4 -81,-25 -126,-35l-264 -57c-39,-9 -95,-24 -137,-24l0 -6 117 0 -35 -15c-98,-24 -200,-33 -301,-49 -119,-18 -228,-35 -344,-55 -116,-21 -217,-46 -326,-73 -105,-26 -213,-86 -320,-86l0 6c29,0 33,6 55,11 -13,19 -24,17 -44,28 0,54 28,72 62,104 80,74 223,143 324,186 41,17 85,26 126,41 44,16 2,18 59,16 18,-1 55,5 76,10 44,10 94,23 135,37l127 45c-8,-13 -38,-56 -48,-54 -9,1 -9,2 -17,-2 -29,-14 -43,-62 -45,-94 44,10 87,32 130,48 258,92 455,72 699,194 37,19 171,83 203,108 14,11 11,7 0,27 21,2 32,9 52,14 30,9 109,19 126,29 40,24 95,23 141,36 23,7 53,15 63,37 4,9 2,6 1,13l-1 4c29,2 75,14 100,22 18,5 26,10 43,18 17,9 24,12 29,32 -12,1 -29,8 -33,11 57,0 138,26 176,62 17,16 25,29 34,49 38,1 61,22 80,19 78,-14 -42,-31 175,-8 9,1 41,5 48,8 14,6 21,19 24,31 51,-4 62,-43 128,-11 -9,32 -69,54 -87,74l-8 9c-44,35 -153,15 -220,196 -14,36 -26,74 -36,113 -12,45 -18,90 9,123 45,55 93,23 144,-9 17,-11 29,-22 43,-35 -43,-10 -90,-7 -111,-39 73,0 186,24 194,-78 -39,-3 -87,-14 -122,-22l0 -11c63,-15 160,12 182,-40 32,-78 -7,-61 -65,-66 -22,-2 -45,-9 -67,-11l0 -11c34,0 122,-17 155,-28 24,-8 26,-32 31,-58 14,-75 -18,-155 -83,-190 -79,-43 -175,-81 -260,-112 -47,-17 -89,-34 -136,-52 -74,-30 -210,-61 -212,-159 63,0 144,27 155,78 48,-13 42,-67 17,-100 -43,-59 -121,-99 -181,-141l-98 -63c-215,-144 -485,-180 -733,-233 -144,-31 -398,-96 -548,-96 -54,0 -107,0 -161,0 -56,0 -104,11 -155,11l0 6c47,0 192,11 234,16 20,2 40,-1 60,1l118 10c22,2 43,-1 65,2 95,10 230,79 321,118 53,23 61,-26 148,18 31,15 54,27 85,43 30,15 57,25 87,41 16,8 25,12 41,20 17,9 29,18 44,17 90,-7 49,-42 128,17 15,11 23,17 38,28 26,20 46,36 72,56 19,14 59,42 70,58z"/>
  <path fill="silver" d="M3518 2195c46,0 87,-8 128,-11l0 -211c-43,0 -400,38 -456,44l-154 12 0 205c25,-12 42,1 67,-11l0 533c-93,0 -181,22 -272,22l0 -527c32,0 38,-6 72,-6l0 -197c-20,-10 -132,6 -159,10l-445 43 0 211c50,0 85,-8 128,-11l0 577 244 128c17,7 433,-36 506,-44 101,-11 57,2 133,-50 29,-19 210,-134 210,-156l0 -560z"/>
  <path fill="#C1C1C1" d="M1953 2373c36,-3 68,-21 105,-22l0 -208c-31,-6 -499,124 -544,125l0 200c15,-1 56,-11 67,-17l0 155c-22,2 -51,11 -72,17l-142 35c-22,5 -50,13 -69,14l0 -150c12,-6 54,-16 72,-17l0 -197c-20,-3 -241,55 -277,64 -90,22 -182,46 -272,67l0 211c20,-10 84,-22 111,-28l0 522c-36,1 -73,19 -111,22l0 216c13,-6 240,-61 275,-69 53,-12 240,-62 274,-64l0 -203c-18,3 -50,13 -72,14l0 -166c25,-2 116,-26 144,-33 24,-6 45,-11 71,-18 18,-4 47,-14 68,-16l0 166c-22,5 -44,11 -67,17l0 200c33,-3 349,-83 407,-98 24,-6 118,-30 136,-30l0 -214c-17,0 -89,17 -105,25l0 -522z"/>
  <path fill="silver" d="M8001 3405l0 -216c-39,0 -68,-16 -105,-17l0 -522c11,5 89,21 105,22l0 -211c-43,-4 -99,-20 -143,-29 -48,-9 -396,-79 -412,-87 0,48 0,96 0,144 0,30 -7,51 12,60 3,1 53,10 60,12l0 150c-39,-1 -253,-55 -289,-55l0 -155c14,7 54,12 72,17l0 -200c-173,-40 -384,-75 -560,-117l0 211c29,7 81,20 111,22l0 522c-15,-7 -87,-22 -111,-22l0 211c177,41 385,76 560,117l0 -205c-30,0 -46,-9 -72,-11l0 -166c22,2 50,9 74,14 26,5 45,9 69,14 37,8 105,27 145,27l0 172c-8,-4 -60,-16 -72,-17l0 205c30,0 239,45 279,54l276 57z"/>
  <path fill="none" d="M4511 5019l6 1 -6 5 0 -6zm-616 -294l6 1 -6 5 0 -6zm-1187 -394l6 1 -6 5 0 -6zm1187 394c-31,-3 -183,-69 -218,-87 -132,-67 -183,-93 -302,-159 -19,-11 -30,-17 -50,-28l-144 -89c-50,-33 -137,-89 -182,-123 -99,-75 -161,-118 -262,-204l-120 -108c-43,-44 -110,-116 -146,-165 -12,-16 -21,-32 -36,-42 0,64 20,132 39,178 44,110 118,269 186,368 16,23 32,43 47,64 -21,-5 -94,-38 -112,-49 -55,-32 -95,-50 -151,-88 -19,-13 -32,-19 -51,-32l-190 -132c-31,-23 -59,-47 -90,-71l-137 -108c-13,-12 -33,-29 -46,-37 -44,29 -142,216 -155,272 21,14 64,61 152,120 108,72 283,155 401,209l331 146c70,31 209,86 289,116l204 74c18,7 31,9 51,15 13,4 14,4 25,8 2,1 11,3 13,4 1,0 3,1 4,1l8 3c1,0 3,1 4,2 -110,0 -375,-26 -477,-50 -34,-8 -114,-28 -150,-28 34,51 299,154 380,186 120,48 261,98 387,140l27 12c-53,0 -88,6 -144,6 -58,0 -260,3 -299,0 -45,-4 -94,-11 -145,-11 6,4 -1,1 11,6 8,3 4,2 12,5l79 32c49,21 300,106 342,107 -16,-14 -60,-34 -66,-48 -5,-11 -3,-13 12,-18l83 -1 199 -18c28,-3 67,-15 95,-16l0 -11c-26,-2 -102,-35 -131,-47 -78,-31 -273,-113 -345,-155 -18,-11 -33,-22 -7,-30 2,-1 213,-1 265,-7 64,-7 70,3 84,-16 -24,-2 -83,-30 -106,-38 -103,-38 -205,-82 -308,-125 -88,-37 -210,-93 -295,-138 -16,-9 -30,-17 -45,-27 -32,-20 -34,-17 -40,-38 20,-10 74,14 113,26 42,12 77,25 119,36l181 52c20,5 47,12 64,14 -10,-15 -20,-29 -31,-47 -7,-11 -8,-14 -15,-25 -11,-16 -24,-44 10,-27 58,29 77,40 144,68 107,44 700,295 785,302l-166 -239c-28,-42 -52,-80 -79,-126 -6,-10 -72,-122 -59,-135 16,-15 43,24 71,51 29,29 176,178 212,187 2,-24 12,-48 20,-68 10,-23 22,-36 41,-48 0,105 137,317 186,391 69,104 90,120 157,204 10,13 23,25 36,36 25,20 56,55 92,58 -7,-79 -47,-292 -11,-366 15,4 14,7 22,17 19,25 24,48 50,66 0,-70 -5,-172 33,-200 14,59 165,244 239,261 -32,-48 -55,-87 -78,-144 -50,-126 -106,-315 -106,-455 0,-39 11,-71 11,-105 -151,101 -228,351 -228,538 0,49 4,79 6,122 2,40 16,79 16,117 -54,-36 -131,-145 -165,-207 -38,-71 -80,-191 -85,-292 -6,-140 -3,-196 32,-334 26,-102 62,-176 118,-260 -69,16 -96,57 -129,93 -20,21 -50,59 -65,85 -23,40 -69,117 -72,161 -76,-55 -66,-374 0,-499 -82,-19 -152,-98 -192,-163 -50,-83 -74,-177 -74,-281l-422 0c-1,46 -13,79 -1,145 20,111 39,206 75,313 8,23 15,34 20,57 -71,-34 -131,-85 -190,-137 -12,-10 -13,-15 -26,-23 10,122 151,449 228,576 112,184 148,242 284,415 16,20 35,38 48,58z"/>
  <path fill="none" d="M5604 4515c1,1 3,0 4,2l107 38c17,6 34,11 54,18 97,37 228,82 314,136 24,15 21,33 -11,22l-109 -42c-76,-26 -154,-44 -240,-60 -177,-33 -375,-39 -533,15 -44,15 -67,27 -102,48 -25,15 -63,45 -82,68 -50,59 -76,122 -96,209 -58,0 -124,-58 -156,-99l-110 -145c-1,55 -25,136 0,189 -31,0 -42,-10 -56,-27 -11,-15 -20,-38 -39,-45 0,61 0,130 8,186 7,50 1,124 31,169 -77,0 -137,-74 -179,-115 -104,-103 -328,-442 -337,-551l-11 0c-7,30 -22,60 -22,94 -51,-4 -131,-100 -171,-135 -27,-24 -71,-71 -96,-87 16,60 108,186 148,246l123 171c9,11 13,17 22,29 1,2 9,12 10,13 32,53 -93,-2 -114,-9 -42,-14 -81,-27 -123,-43 -82,-32 -158,-60 -240,-93l-411 -172c-22,-9 -35,-20 -58,-25 20,30 38,55 55,89 -114,0 -365,-106 -427,-111 6,5 1,1 10,7 5,3 5,3 10,7 10,6 10,6 21,12 100,53 225,107 329,148 98,39 194,82 293,118 25,9 81,34 103,35l0 22c-28,0 -58,4 -86,8 -67,10 -125,7 -191,9 -32,1 -54,6 -94,6l24 15c69,35 408,186 464,190l0 22c-30,7 -55,17 -89,22 -102,17 -202,22 -311,22 10,8 -5,-3 9,8 7,5 7,5 13,9 43,25 69,19 72,50 -55,13 -134,33 -194,33 12,16 44,18 65,23l222 55c47,12 100,25 147,37 36,9 35,11 75,5 24,-4 54,-7 83,-11 113,-16 226,-23 340,-32 48,-4 129,-1 176,-8 53,-8 122,2 180,2 -39,-34 -270,-120 -300,-122l0 -22c70,0 161,20 221,34 143,35 419,152 434,332 52,0 110,10 162,17 39,5 11,17 -6,39 -6,8 -11,16 -19,26 -9,12 -13,14 -20,25 73,6 152,6 227,-11 6,29 -18,43 -33,67 68,0 116,-6 177,-12 26,-2 56,-7 83,-11 25,-3 58,-11 84,-11 5,23 -10,37 -22,55 140,0 331,-29 455,-94 2,21 6,18 6,44 73,-35 59,-8 166,-89 25,-19 46,-36 71,-57 24,-20 43,-44 57,-71 -12,-6 -94,-26 -111,-28 33,-46 105,-52 111,-128 -40,3 -75,26 -112,38 -102,34 -213,57 -324,37 -23,-4 -40,-12 -63,-14 53,-46 150,-87 150,-166 -25,6 -59,28 -83,39 -102,46 -298,93 -411,56 -32,-10 -52,-27 -80,-42 -41,-21 -98,-37 -146,-37 -23,0 -31,6 -61,6 -9,-38 -24,-66 -31,-109 -3,-18 -4,-41 11,-49 2,-1 59,-8 64,-8 354,-18 313,266 573,141 17,-8 33,-20 48,-24 -29,-43 -47,-70 -17,-127 56,-108 260,-183 377,-155 15,63 -35,108 -67,155 70,-16 151,-61 201,-109 17,-17 42,-33 48,-57 85,0 181,-1 231,35 67,49 -4,121 -48,159 36,-1 108,-33 135,-48 35,-20 86,-52 87,-102 -23,-11 -39,-12 -62,-27 -115,-73 7,-29 -193,-29 -123,0 -339,-6 -438,0 -83,5 -183,29 -238,61 -60,35 -122,89 -139,161 -16,-4 -71,-48 -98,-63 -32,-18 -78,-43 -124,-43 7,32 15,19 22,44 -15,12 -14,9 -31,-1 -15,-9 -27,-15 -41,-20 -69,-26 -133,-36 -209,-28 -35,4 -66,16 -106,16 7,-87 65,-182 123,-237 66,-62 180,-91 276,-90 170,1 311,40 460,90 160,54 292,81 475,52 139,-22 318,-64 330,-219 2,-30 1,-59 -7,-81 -39,-96 -146,-93 -166,-117 -6,-7 -23,-67 -92,-85l0 -17c71,-6 76,6 133,6 -25,-35 -158,-72 -222,-72 1,-17 -10,-19 50,-33 -1,-1 -3,-3 -3,-2l-14 -8c-23,-11 -54,-17 -77,-23 -24,-6 -83,-17 -111,-17 2,-29 10,-21 39,-28 -29,-25 -112,-32 -152,-42 -30,-7 -40,-24 -70,20 -74,-6 -192,-33 -266,-39l40 -43c-42,-5 -47,-29 -86,-9 -47,23 -118,65 -161,32 -20,-15 -36,-48 -36,-80 20,-2 22,-4 33,-11 -18,-4 -24,-9 -44,-11 4,-53 5,-24 -39,-44 -8,35 -17,73 -17,117 -65,-15 -129,-48 -185,-76 -32,-16 -59,-27 -91,-43 -24,-12 -68,-35 -96,-37 18,69 147,146 218,170 263,89 551,92 796,175 13,4 23,7 38,12l74 26c23,9 22,1 27,23 -11,15 -54,18 -96,31 -66,21 -8,23 -98,2 -126,-30 -339,-38 -472,-50 -71,-6 -182,-6 -255,-6l0 6c54,0 235,35 298,46 125,21 436,90 571,128 56,16 178,48 230,75 19,10 16,2 22,23 -22,10 -170,-26 -206,-33 -82,-16 -580,-89 -665,-89 15,9 93,23 111,28 148,36 591,155 709,229 15,9 23,20 2,23 -2,0 -17,-3 -21,-4 -166,-51 -331,-81 -502,-109 -56,-9 -134,-28 -194,-28z"/>
  <path fill="silver" d="M5793 5730l1 -6 5 6 -6 0zm-954 -128c-9,13 -207,159 -229,176 -58,47 -112,88 -167,139l-54 46c-17,-4 -66,-51 -84,-66 -120,-95 -216,-163 -340,-254 -41,-30 -245,-169 -264,-174 14,-19 -4,-6 22,-12 8,-2 21,-3 29,-4 21,-3 31,-6 55,-6l228 155c24,17 47,33 71,51 26,19 48,35 74,54l210 162c20,-30 306,-254 334,-271 28,-17 53,4 115,4zm993 -283l-1 6 -5 -6 6 0zm-2552 -128l11 6 -11 -6zm3151 -128l-1 6 -5 -6 6 0zm-3995 -316c-1,-1 2,-2 2,-2l-2 2zm-11 -6c-1,-1 2,-2 2,-2l-2 2zm-11 -11l6 1 -6 5 0 -6zm0 0l-11 -6 11 6zm-11 -6l-11 -6 11 6zm227 -17l-6 -1 6 -5 0 6zm2974 -194l-17 0 0 -6c28,0 9,0 17,6zm-2857 -17c-1,-1 2,-2 2,-2l-2 2zm2724 -122c-1,-1 2,-2 2,-2l-2 2zm1054 -89l6 1 -6 5 0 -6zm-781 -351c0,-1 -1,2 -2,2l2 -2zm-11 -6c0,-1 -1,2 -2,2l2 -2zm-11 -6c0,-1 -1,2 -2,2l2 -2zm-18 -9l11 6 -11 -6zm0 0l-100 -50c23,2 38,14 55,22 17,9 34,13 44,28zm-100 -50l-6 -1 6 -5 0 6zm-3212 854l-96 -42c-33,-16 -61,-31 -92,-46 -202,-101 -542,-252 -754,-339 -63,-26 -125,-54 -192,-80 -71,-28 -302,-116 -366,-145 -12,-6 -13,-6 -20,-13l311 -83c34,-9 66,-17 102,-25l425 -91c-3,14 -26,61 -33,72 -11,17 -9,13 -32,17 -108,19 -267,57 -377,83l-125 30c-10,3 -14,4 -21,6l-16 7c22,5 119,47 147,59 246,104 609,251 858,374 24,12 118,53 133,67 -26,0 -25,1 -44,6 2,21 2,18 16,28 25,18 166,100 178,116zm3197 -862c0,-1 -1,2 -2,2l2 -2zm-11 -6c0,-1 -1,2 -2,2l2 -2zm-11 -6c0,-1 -1,2 -2,2l2 -2zm-551 -9c29,2 72,25 96,37 32,16 59,27 91,43 56,28 120,61 185,76 0,-44 8,-81 17,-117 43,21 43,-8 39,44 20,2 26,7 44,11 -11,8 -13,9 -33,11 1,32 16,65 36,80 43,32 114,-9 161,-32 40,-20 45,4 86,9l-40 43c75,6 192,33 266,39 30,-44 40,-27 70,-20 40,10 123,17 152,42 -29,7 -36,-1 -39,28 28,0 87,11 111,17 23,6 54,12 77,23l14 8c1,-1 2,2 3,2 -60,14 -49,16 -50,33 64,0 197,38 222,72 -58,0 -62,-11 -133,-6l0 17c69,18 86,78 92,85 21,23 128,21 166,117 9,22 10,52 7,81 -12,155 -192,197 -330,219 -183,29 -314,2 -475,-52 -149,-50 -290,-89 -460,-90 -96,0 -210,28 -276,90 -59,55 -116,151 -123,237 40,0 71,-12 106,-16 77,-8 141,2 209,28 14,5 27,12 41,20 17,10 16,14 31,1 -7,-25 -15,-13 -22,-44 46,0 92,25 124,43 27,15 83,59 98,63 17,-71 79,-126 139,-161 55,-32 156,-56 238,-61 99,-6 315,0 438,0 200,0 78,-44 193,29 23,15 39,16 62,27 -1,50 -52,82 -87,102 -27,15 -99,47 -135,48 44,-38 115,-110 48,-159 -50,-37 -146,-35 -231,-35 -7,24 -31,40 -48,57 -50,49 -131,93 -201,109 31,-47 81,-92 67,-155 -117,-27 -321,47 -377,155 -30,58 -12,84 17,127 -15,4 -31,16 -48,24 -261,125 -220,-159 -573,-141 -5,0 -61,7 -64,8 -15,8 -14,31 -11,49 7,42 22,71 31,109 30,0 38,-6 61,-6 48,0 105,16 146,37 29,15 49,31 80,42 113,37 309,-11 411,-56 24,-11 58,-33 83,-39 0,79 -96,120 -150,166 23,2 40,10 63,14 112,20 223,-3 324,-37 37,-12 72,-35 112,-38 -6,76 -77,82 -111,128 17,1 99,22 111,28 -14,27 -33,51 -57,71 -25,21 -46,38 -71,57 -107,80 -94,54 -166,89 0,-26 -4,-23 -6,-44 -124,65 -315,94 -455,94 12,-18 27,-32 22,-55 -26,0 -59,7 -84,11 -27,4 -57,8 -83,11 -61,6 -109,12 -177,12 16,-24 39,-37 33,-67 -75,18 -154,17 -227,11 7,-11 11,-13 20,-25 8,-10 12,-17 19,-26 17,-22 46,-34 6,-39 -52,-6 -110,-17 -162,-17 -15,-180 -291,-296 -434,-332 -60,-15 -151,-34 -221,-34l0 22c30,3 261,88 300,122 -58,0 -127,-10 -180,-2 -46,7 -127,4 -176,8 -114,9 -227,15 -340,32 -29,4 -59,8 -83,11 -40,6 -39,4 -75,-5 -46,-12 -100,-25 -147,-37l-222 -55c-22,-5 -54,-7 -65,-23 60,0 139,-20 194,-33 -3,-31 -29,-25 -72,-50 -6,-4 -6,-3 -13,-9 -14,-11 1,1 -9,-8 109,0 209,-5 311,-22 34,-6 59,-15 89,-22l0 -22c-56,-5 -396,-155 -464,-190l-24 -15c40,0 62,-5 94,-6 66,-2 124,1 191,-9 29,-4 58,-8 86,-8l0 -22c-22,-2 -79,-27 -103,-35 -99,-35 -195,-79 -293,-118 -104,-41 -229,-95 -329,-148 -11,-6 -11,-6 -21,-12 -6,-3 -6,-3 -10,-7 -9,-6 -4,-2 -10,-7 62,5 313,111 427,111 -18,-34 -35,-58 -55,-89 23,5 35,16 58,25l411 172c82,33 158,60 240,93 42,16 81,29 123,43 20,7 146,62 114,9 0,0 -8,-11 -10,-13 -9,-12 -13,-17 -22,-29l-123 -171c-40,-60 -131,-186 -148,-246 24,16 68,63 96,87 39,35 120,130 171,135 0,-34 15,-65 22,-94l11 0c9,109 233,447 337,551 42,41 102,115 179,115 -30,-45 -24,-118 -31,-169 -8,-57 -8,-125 -8,-186 18,7 27,30 39,45 13,17 24,27 56,27 -25,-52 -1,-134 0,-189l110 145c33,41 98,99 156,99 20,-87 46,-150 96,-209 19,-23 57,-53 82,-68 35,-21 58,-33 102,-48 158,-54 356,-49 533,-15 86,16 163,34 240,60l109 42c31,11 34,-7 11,-22 -86,-55 -217,-99 -314,-136 -20,-8 -37,-12 -54,-18l-107 -38c-1,-2 -3,-1 -4,-2 60,0 138,18 194,28 171,28 336,58 502,109 4,1 19,5 21,4 20,-3 13,-14 -2,-23 -118,-74 -561,-193 -709,-229 -18,-4 -96,-18 -111,-28 86,0 584,73 665,89 35,7 184,43 206,33 -5,-20 -3,-13 -22,-23 -52,-26 -174,-59 -230,-75 -134,-38 -446,-107 -571,-128 -63,-11 -244,-46 -298,-46l0 -6c73,0 183,0 255,6 133,11 346,19 472,50 89,21 32,19 98,-2 42,-13 86,-17 96,-31 -6,-21 -4,-14 -27,-23l-74 -26c-16,-5 -26,-7 -38,-12 -245,-83 -533,-86 -796,-175 -71,-24 -200,-101 -218,-170zm523 -2c0,-1 -1,2 -2,2l2 -2zm-523 2l-6 -1 6 -5 0 6zm505 -6c-1,-1 2,-2 2,-2l-2 2zm-17 -6c-9,-9 6,-3 6,-3 14,-5 -1,9 -6,3zm-22 -11l17 0 0 6c-28,0 -9,0 -17,-6zm2314 300c-54,-13 -114,-30 -168,-43 -302,-75 -557,-131 -867,-187 -250,-45 -136,-9 -234,-83 -15,-11 -17,-12 -33,-22l-30 -20c26,1 80,11 106,16 391,65 727,135 1111,232l336 92c6,2 17,4 26,7 0,0 10,4 12,5l7 4c-50,12 -185,55 -238,73l-344 117c-36,12 -76,25 -115,40 -32,12 -205,79 -224,81 0,-35 1,-50 -6,-78l621 -217 36 -14c1,-2 2,-1 4,-2zm-2314 -300l-192 -19c-70,-10 -111,-16 -168,-37 -54,-20 -94,-36 -158,-52 -32,-8 -56,-14 -82,-24 -52,-19 -53,-19 -55,-45 134,71 349,108 495,132l125 30c5,2 15,5 21,7l11 6c1,-1 2,1 4,2zm-971 1204c0,-37 -14,-76 -16,-117 -2,-43 -6,-73 -6,-122 -1,-187 77,-437 228,-538 -1,34 -11,66 -11,105 0,140 56,329 106,455 23,58 46,97 78,144 -73,-17 -225,-202 -239,-261 -38,28 -33,130 -33,200 -26,-18 -31,-42 -50,-66 -8,-10 -7,-13 -22,-17 -36,74 5,287 11,366 -36,-3 -67,-38 -92,-58 -14,-11 -26,-23 -36,-36 -67,-84 -87,-100 -157,-204 -49,-74 -186,-286 -186,-391 -18,12 -31,25 -41,48 -9,20 -18,44 -20,68 -36,-10 -184,-159 -212,-187 -27,-27 -55,-67 -71,-51 -13,13 53,125 59,135 27,45 51,84 79,126l166 239c-85,-7 -679,-258 -785,-302 -67,-28 -85,-39 -144,-68 -34,-17 -21,11 -10,27 7,10 8,14 15,25 11,17 21,31 31,47 -17,-1 -44,-9 -64,-14l-181 -52c-42,-12 -77,-24 -119,-36 -39,-12 -93,-35 -113,-26 5,21 8,18 40,38 15,10 29,18 45,27 84,45 207,101 295,138 103,43 204,87 308,125 23,8 82,36 106,38 -14,19 -20,9 -84,16 -52,6 -262,7 -265,7 -26,8 -12,19 7,30 72,42 266,124 345,155 28,11 105,45 131,47l0 11c-28,1 -67,12 -95,16l-199 18 -83 1c-15,5 -16,7 -12,18 6,14 50,34 66,48 -43,-1 -293,-86 -342,-107l-79 -32c-8,-3 -4,-1 -12,-5 -12,-5 -5,-2 -11,-6 51,0 99,7 145,11 40,3 242,0 299,0 56,0 91,-6 144,-6l-27 -12c-126,-43 -266,-92 -387,-140 -81,-32 -345,-135 -380,-186 35,0 116,20 150,28 102,24 367,50 477,50 -1,-1 -3,-1 -4,-2l-8 -3c-1,0 -3,-1 -4,-1 -2,-1 -10,-3 -13,-4 -11,-4 -13,-4 -25,-8 -20,-6 -33,-8 -51,-15l-204 -74c-80,-30 -219,-85 -289,-116l-331 -146c-118,-55 -293,-137 -401,-209 -88,-59 -131,-106 -152,-120 13,-56 111,-242 155,-272 13,9 33,26 46,37l137 108c31,23 59,47 90,71l190 132c19,13 32,19 51,32 56,37 96,55 151,88 18,11 91,44 112,49 -14,-21 -31,-41 -47,-64 -68,-100 -142,-258 -186,-368 -18,-46 -39,-114 -39,-178 15,10 24,26 36,42 36,48 103,121 146,165l120 108c101,85 163,129 262,204 45,34 133,90 182,123l144 89c19,11 30,17 50,28 119,66 170,92 302,159 35,18 187,84 218,87 -13,-19 -32,-38 -48,-58 -136,-172 -172,-230 -284,-415 -77,-127 -218,-454 -228,-576 13,9 15,13 26,23 59,52 119,103 190,137 -5,-23 -13,-35 -20,-57 -36,-107 -55,-203 -75,-313 -12,-67 0,-99 1,-145l422 0c0,103 24,198 74,281 40,65 110,144 192,163 -66,125 -76,444 0,499 4,-44 49,-121 72,-161 15,-26 45,-64 65,-85 33,-36 60,-77 129,-93 -56,84 -92,158 -118,260 -35,138 -39,194 -32,334 5,102 47,221 85,292 33,62 111,171 165,207zm577 -1631c0,-43 3,-58 26,-79 19,-18 39,-26 74,-26 82,0 283,94 371,128 8,3 17,6 24,9l21 12c-136,0 -379,-151 -481,-82l-19 19c-12,16 4,4 -15,18zm-1126 -72c0,-13 24,-16 39,-17 -7,7 -22,21 -22,33 0,108 314,263 418,303 91,34 121,23 159,80 -41,-1 -150,-45 -191,-59 -129,-46 -403,-180 -403,-341zm2214 538c-10,-15 -51,-44 -70,-58 -27,-20 -46,-36 -72,-56 -15,-11 -23,-17 -38,-28 -78,-59 -38,-24 -128,-17 -15,1 -27,-8 -44,-17 -16,-8 -25,-12 -41,-20 -30,-15 -57,-25 -87,-41 -31,-15 -55,-27 -85,-43 -87,-44 -95,4 -148,-18 -91,-39 -226,-108 -321,-118 -22,-2 -43,1 -65,-2l-118 -10c-20,-2 -40,1 -60,-1 -42,-5 -187,-16 -234,-16l0 -6c51,0 99,-11 155,-11 54,0 107,0 161,0 149,0 404,65 548,96 247,53 518,89 733,233l98 63c60,42 138,82 181,141 25,33 31,87 -17,100 -12,-50 -92,-78 -155,-78 2,98 139,130 212,159 47,19 89,35 136,52 85,31 180,69 260,112 65,35 96,115 83,190 -5,26 -7,50 -31,58 -34,10 -122,28 -155,28l0 11c21,2 45,9 67,11 58,4 97,-12 65,66 -22,52 -119,25 -182,40l0 11c35,8 83,19 122,22 -8,102 -121,78 -194,78 21,31 68,29 111,39 -14,12 -26,24 -43,35 -51,32 -99,63 -144,9 -27,-33 -21,-78 -9,-123 10,-40 23,-77 36,-113 67,-181 176,-161 220,-196l8 -9c18,-20 79,-41 87,-74 -66,-32 -76,7 -128,11 -3,-12 -11,-26 -24,-31 -7,-3 -39,-7 -48,-8 -217,-23 -97,-6 -175,8 -19,3 -42,-18 -80,-19 -9,-20 -17,-33 -34,-49 -39,-36 -119,-62 -176,-62 5,-3 21,-10 33,-11 -5,-19 -12,-22 -29,-32 -16,-9 -25,-13 -43,-18 -25,-8 -71,-20 -100,-22l1 -4c1,-7 3,-4 -1,-13 -10,-21 -40,-30 -63,-37 -46,-13 -101,-13 -141,-36 -17,-10 -96,-21 -126,-29 -20,-6 -31,-13 -52,-14 11,-20 14,-16 0,-27 -32,-25 -166,-89 -203,-108 -244,-123 -441,-102 -699,-194 -43,-15 -85,-38 -130,-48 3,32 16,80 45,94 8,4 9,3 17,2 10,-1 40,42 48,54l-127 -45c-41,-14 -91,-27 -135,-37 -21,-5 -58,-11 -76,-10 -57,2 -16,0 -59,-16 -41,-15 -85,-23 -126,-41 -101,-43 -245,-112 -324,-186 -35,-32 -62,-50 -62,-104 20,-11 31,-8 44,-28 -22,-5 -27,-11 -55,-11l0 -6c106,0 214,59 320,86 109,27 210,52 326,73 116,21 225,37 344,55 101,16 203,25 301,49l35 15 -117 0 0 6c41,0 98,15 137,24l264 57c45,10 81,31 126,35l-44 11c1,1 3,2 3,2l59 19c107,30 208,71 312,105 39,13 78,37 120,41zm-383 1875c-3,15 -5,16 -11,28 134,-11 303,-122 393,-212 24,-24 70,-86 73,-126 -27,-6 -40,-16 -67,-22 13,-50 44,-18 44,-139 -17,-11 -16,-21 -41,-19 -61,5 -241,80 -353,80 11,-16 25,-30 35,-48 5,-9 12,-22 15,-30 4,-11 5,-20 11,-28 11,-14 297,-155 322,-166 58,-26 302,-173 185,-49 -26,27 -51,61 -81,86 -21,17 -31,12 -32,46 193,0 324,-60 433,-182 16,-17 9,-12 35,-21 58,-20 103,-43 153,-68 75,-37 44,-38 68,-60 25,-23 42,-51 60,-79 1,-2 9,-15 10,-18 1,-1 2,-5 3,-7 4,-10 1,-9 9,-16 19,-17 28,-29 54,-40l316 -127c214,-86 430,-165 649,-238 59,-20 106,-37 165,-57l337 -107c56,-17 115,-37 171,-51 -2,-24 4,-14 -16,-23 -35,-14 -168,-47 -205,-56 -582,-149 -1135,-269 -1736,-356 -176,-25 -355,-44 -531,-68 -72,-10 -350,-24 -401,-49 -35,-17 -60,-32 -94,-50 -132,-70 -252,-150 -394,-205 -147,-58 -334,-76 -434,74l-387 -63c-126,-17 -270,-36 -407,-43 -29,-1 -79,-7 -106,-10l-104 -7c-72,-1 -143,-8 -211,-11 -111,-5 -227,0 -339,0 -40,0 -61,6 -105,6l0 83c-79,2 -359,36 -420,46 -134,22 -263,45 -390,76 -243,59 -471,133 -700,227 -60,25 -66,33 -133,44l-634 115c-163,33 -318,66 -477,106 -52,13 -239,66 -275,69l0 22c24,2 119,44 145,55 49,20 93,38 142,58 160,64 675,281 836,363 25,13 44,19 68,31 24,12 46,20 68,31 162,80 549,255 670,329 40,24 89,45 132,67l390 209c21,12 41,23 64,36 43,25 75,57 121,78 24,11 48,19 70,30 156,81 463,276 623,376l121 79c179,119 359,237 530,369 19,14 36,27 57,43 38,28 73,62 112,88 34,-51 322,-274 391,-325 292,-219 153,-128 376,-151 30,-3 55,-4 82,-7 27,-2 53,-9 78,-11 -9,14 -32,38 -13,51 34,22 169,-2 212,-7 51,-6 241,-49 267,-49z"/>
  <rect fill="none" width="9000" height="9000"/>
 </g>
</svg>
