<?xml version="1.0" encoding="UTF-8"?>
<!DOCTYPE svg PUBLIC "-//W3C//DTD SVG 1.1//EN" "http://www.w3.org/Graphics/SVG/1.1/DTD/svg11.dtd">
<!-- Creator: CorelDRAW X7 -->
<svg xmlns="http://www.w3.org/2000/svg" xml:space="preserve" width="11in" height="8.5in" version="1.1" shape-rendering="geometricPrecision" text-rendering="geometricPrecision" image-rendering="optimizeQuality" fill-rule="evenodd" clip-rule="evenodd"
viewBox="0 0 11000 8500"
 xmlns:xlink="http://www.w3.org/1999/xlink">
 <g id="Layer_x0020_1">
  <metadata id="CorelCorpID_0Corel-Layer"/>
  <g id="_897284448">
   <g>
    <g>
     <polygon fill="#395869" fill-rule="nonzero" points="6102,4889 5295,4310 5533,4310 "/>
     <polygon fill="black" fill-rule="nonzero" points="6102,4889 6675,4310 6909,4310 "/>
     <polygon fill="#8BADC0" fill-rule="nonzero" points="6102,4889 6172,4310 6675,4310 "/>
     <polygon fill="#8BADC0" fill-rule="nonzero" points="6102,4889 6036,4310 5533,4310 "/>
     <polygon fill="#395869" fill-rule="nonzero" points="6102,4889 6036,4310 6172,4310 "/>
     <polygon fill="#8BADC0" fill-rule="nonzero" points="5848,3647 6355,3647 6100,4046 "/>
     <polygon fill="black" fill-rule="nonzero" points="6172,4310 6675,4310 6420,3923 "/>
     <polygon fill="#395869" fill-rule="nonzero" points="5533,4310 6036,4310 5786,3923 "/>
     <polygon fill="#D4E1E8" fill-rule="nonzero" points="6100,4310 6100,4046 6102,4043 6355,3647 6480,3647 6909,4310 6675,4310 6420,3923 6172,4310 "/>
     <polygon fill="#F9FBFC" fill-rule="nonzero" points="6100,4046 6100,4310 6036,4310 5786,3923 5533,4310 5296,4310 5723,3647 5848,3647 "/>
     <path fill="none" fill-rule="nonzero" d="M6675 4310c1090,0 -2214,0 -1142,0"/>
    </g>
    <path fill="#D4E1E8" fill-rule="nonzero" d="M4862 4114c-14,-24 -23,-52 -29,-82l-5 -30 30 0 526 0c0,-19 -1,-38 -3,-55 -2,-19 -6,-37 -10,-53 -4,-16 -9,-32 -16,-48 -6,-15 -14,-29 -23,-42 -14,-22 -31,-42 -50,-59 -19,-18 -40,-33 -63,-45l0 0c-23,-12 -46,-22 -71,-28 -25,-6 -50,-9 -77,-9 -23,0 -45,2 -65,6 -20,4 -40,10 -59,19 -18,8 -36,18 -53,31 -17,12 -33,27 -48,43 -14,16 -27,32 -38,49 -10,17 -19,34 -26,53 -8,18 -13,38 -17,57 -3,20 -5,41 -5,63 0,20 2,41 6,61 4,20 10,40 18,60 8,20 17,38 28,56 11,17 24,33 38,48 15,16 31,29 48,41 17,12 34,22 53,30 18,7 37,13 58,17 20,4 42,6 64,6 34,0 65,-4 94,-13 29,-9 56,-22 81,-40 25,-17 47,-39 66,-65 13,-16 24,-35 35,-55l-78 0c-9,14 -19,26 -30,38 -14,15 -30,27 -48,38 -18,10 -37,18 -57,23 -20,6 -41,8 -63,8 -30,0 -58,-4 -84,-14 -27,-10 -51,-24 -73,-43 -22,-19 -40,-41 -54,-66zm29 -61c4,13 10,25 16,37 11,19 25,36 42,51 18,15 37,27 57,34 21,7 43,11 67,11 18,0 34,-2 50,-6 15,-4 30,-10 44,-19 14,-8 26,-17 37,-29 11,-11 21,-25 30,-40l7 -13 15 0 133 0 38 0 -15 35c-15,38 -35,72 -57,102 -23,30 -49,55 -78,76 -29,21 -61,36 -95,47 -34,10 -70,16 -109,16 -25,0 -50,-3 -74,-7 -24,-5 -47,-12 -69,-21 -21,-9 -42,-21 -61,-35 -20,-13 -38,-30 -56,-48 -16,-17 -31,-36 -44,-56 -13,-20 -24,-42 -33,-64 -9,-23 -16,-46 -21,-69 -4,-24 -7,-48 -7,-71 0,-25 3,-49 7,-72 4,-23 10,-46 19,-67 8,-21 18,-42 31,-61 12,-20 27,-39 43,-57 17,-19 36,-35 56,-50 20,-14 41,-27 63,-36 22,-10 45,-17 69,-22 24,-5 49,-8 75,-8 31,0 61,4 89,11 29,8 57,18 84,33l0 0c27,14 51,32 73,52 22,20 41,43 58,69 11,16 20,33 27,50 8,18 14,36 19,55 5,19 8,40 11,61 2,21 3,44 3,67l0 19 0 25 -25 0 -519 0zm354 -157c-5,-12 -10,-23 -16,-33 -12,-18 -25,-34 -41,-47 -16,-12 -33,-22 -52,-29 -18,-6 -39,-9 -61,-9 -23,0 -45,3 -64,10 -20,6 -38,16 -55,29 -16,14 -30,30 -42,48 -6,10 -11,20 -16,31l347 0zm27 -59c14,23 25,49 33,78l9 33 -34 0 -418 0 -34 0 9 -33c8,-28 19,-54 34,-77 14,-23 32,-44 53,-60 22,-18 45,-30 70,-39 25,-8 52,-13 81,-13 28,0 54,4 78,13 25,8 47,21 68,38 20,16 37,36 51,60z"/>
    <path fill="#D4E1E8" fill-rule="nonzero" d="M4651 4021c0,-16 0,16 0,-7l0 -340 -73 0 0 323 -1 0 0 31 0 25 0 0 0 11c0,46 -21,87 -54,116 -33,30 -78,48 -126,48 -49,0 -94,-19 -127,-50 -34,-31 -54,-73 -54,-120l0 0 0 -5 -74 0 0 5 0 0c0,68 28,129 74,173 46,44 110,72 181,72 70,0 134,-28 180,-72 46,-44 74,-105 74,-173l0 0 0 -5 0 0 0 -25c0,-3 0,-5 0,-7z"/>
    <path fill="#D4E1E8" fill-rule="nonzero" d="M4702 4014c0,-1 0,-1 0,0l0 0z"/>
    <path fill="#D4E1E8" fill-rule="nonzero" d="M4703 4014c0,12 0,2 -1,0l0 0c0,1 0,3 0,7l0 4 0 3 0 30 1 0c0,82 -35,156 -90,210 -56,53 -132,86 -216,86 -85,0 -161,-33 -216,-86 -56,-54 -90,-128 -90,-210l0 0 0 -30 0 -26 25 0 125 0 26 0 0 26 0 30 0 0c0,32 15,61 38,82 23,22 56,36 92,36 35,0 68,-13 92,-34 23,-20 37,-48 37,-78l0 -27 0 -9 0 -26 0 0 0 -5 0 0 0 -349 0 -25 26 0 125 0 26 0 0 25 0 366z"/>
    <path fill="#D4E1E8" fill-rule="nonzero" d="M5280 3922c-14,-54 -40,-96 -76,-126 -36,-29 -79,-44 -129,-44 -52,0 -97,15 -135,45 -38,31 -64,72 -78,125l418 0zm-422 106c10,54 35,99 75,133 39,34 86,51 140,51 39,0 75,-10 107,-28 32,-19 57,-45 76,-79l133 0c-30,72 -73,128 -127,166 -54,39 -117,58 -189,58 -48,0 -92,-9 -132,-26 -41,-17 -77,-42 -109,-77 -31,-32 -55,-69 -72,-112 -17,-42 -26,-86 -26,-130 0,-47 8,-90 24,-130 15,-40 39,-76 69,-109 33,-36 69,-63 110,-81 41,-18 86,-27 134,-27 57,0 111,14 161,40 49,27 90,64 122,113 19,29 33,62 42,98 9,35 14,76 14,121l0 19 -552 0z"/>
    <path fill="#D4E1E8" fill-rule="nonzero" d="M4677 4014c0,5 0,9 0,14l0 0 0 30c0,149 -126,271 -280,271 -155,0 -281,-122 -281,-271l0 -30 125 0 0 30c0,79 72,144 156,144 83,0 155,-61 155,-138l0 -27 0 -9 0 0 0 -31 0 -349 125 0 0 366z"/>
    <g transform="matrix(0.999316 0 0 1 -1383.5 291.947)">
     <text x="5500" y="4250"  fill="#B08318" font-weight="normal" font-size="186.807px" font-family="Segoe UI">jostens enterprise </text>
    </g>
    <g transform="matrix(0.999316 0 0 1 -1383.5 291.947)">
     <text x="7006" y="4250"  fill="#D4E1E8" font-weight="normal" font-size="186.807px" font-family="Segoe UI">media manager</text>
    </g>
   </g>
   <rect fill="none" x="4090" y="3537" width="2819" height="1426"/>
  </g>
 </g>
</svg>
