<?xml version="1.0" encoding="UTF-8"?>
<!DOCTYPE svg PUBLIC "-//W3C//DTD SVG 1.1//EN" "http://www.w3.org/Graphics/SVG/1.1/DTD/svg11.dtd">
<!-- Creator: CorelDRAW X7 -->
<svg xmlns="http://www.w3.org/2000/svg" xml:space="preserve" width="2.81951in" height="1.42575in" version="1.1" shape-rendering="geometricPrecision" text-rendering="geometricPrecision" image-rendering="optimizeQuality" fill-rule="evenodd" clip-rule="evenodd"
viewBox="0 0 2820 1426"
 xmlns:xlink="http://www.w3.org/1999/xlink">
 <g id="Layer_x0020_1">
  <metadata id="CorelCorpID_0Corel-Layer"/>
  <g id="_992894864">
   <g>
    <g>
     <polygon fill="#395869" fill-rule="nonzero" points="2011,1351 1205,773 1443,773 "/>
     <polygon fill="black" fill-rule="nonzero" points="2011,1351 2585,773 2819,773 "/>
     <polygon fill="#8BADC0" fill-rule="nonzero" points="2011,1351 2082,773 2585,773 "/>
     <polygon fill="#8BADC0" fill-rule="nonzero" points="2011,1351 1946,773 1443,773 "/>
     <polygon fill="#395869" fill-rule="nonzero" points="2011,1351 1946,773 2082,773 "/>
     <polygon fill="#8BADC0" fill-rule="nonzero" points="1758,110 2265,110 2010,509 "/>
     <polygon fill="black" fill-rule="nonzero" points="2082,773 2585,773 2330,386 "/>
     <polygon fill="#395869" fill-rule="nonzero" points="1442,773 1946,773 1696,386 "/>
     <polygon fill="#D4E1E8" fill-rule="nonzero" points="2010,773 2010,509 2012,506 2265,110 2390,110 2819,773 2585,773 2330,386 2082,773 "/>
     <polygon fill="#F9FBFC" fill-rule="nonzero" points="2010,509 2010,773 1946,773 1696,386 1442,773 1206,773 1633,110 1758,110 "/>
     <path fill="none" fill-rule="nonzero" d="M2585 773c1090,0 -2214,0 -1143,0"/>
    </g>
    <path fill="#D4E1E8" fill-rule="nonzero" d="M772 578c-14,-25 -24,-53 -29,-83l-6 -30 31 0 526 0c-1,-19 -2,-37 -3,-54 -3,-20 -6,-38 -10,-54 -4,-16 -9,-32 -16,-48 -7,-15 -14,-29 -23,-42 -14,-22 -31,-42 -50,-59 -19,-17 -40,-32 -63,-45l0 0c-23,-12 -47,-22 -71,-28 -25,-6 -51,-9 -77,-9 -23,0 -45,2 -65,6 -20,4 -40,10 -59,19 -19,8 -36,18 -53,31 -17,12 -33,27 -49,43 -14,16 -26,32 -37,49 -11,17 -20,34 -27,53 -7,18 -13,38 -16,57 -4,20 -6,41 -6,63 0,20 2,41 6,61 4,20 10,40 18,60 8,20 18,39 29,56 11,17 24,33 38,48 15,16 31,29 48,41 16,12 34,22 52,30 19,7 38,13 58,17 21,4 42,6 65,6 34,0 65,-4 94,-13 28,-9 55,-22 80,-40 25,-17 47,-39 67,-65 12,-16 24,-35 34,-55l-78 0c-8,14 -18,26 -29,38 -15,15 -31,27 -49,38 -18,10 -37,18 -57,23 -20,6 -40,8 -62,8 -30,0 -58,-4 -85,-14 -26,-10 -51,-24 -73,-43 -21,-19 -39,-40 -53,-65zm29 -62c4,13 9,25 16,37 10,19 25,36 42,51 17,15 36,27 57,34 20,7 43,11 67,11 17,0 34,-2 49,-6 16,-4 30,-10 45,-19 13,-8 26,-17 37,-29 11,-11 21,-25 29,-40l8 -13 15 0 133 0 38 0 -15 35c-16,39 -35,72 -57,102 -23,30 -49,55 -78,76 -29,21 -61,36 -95,47 -35,10 -71,16 -109,16 -26,0 -50,-3 -74,-7 -24,-5 -47,-12 -69,-21 -22,-9 -42,-21 -62,-35 -19,-13 -38,-29 -55,-48 -17,-17 -31,-36 -44,-56 -13,-20 -24,-41 -33,-64 -10,-23 -16,-46 -21,-69 -5,-24 -7,-47 -7,-71 0,-25 2,-48 6,-72 5,-23 11,-45 19,-67 9,-21 19,-42 31,-61 13,-20 27,-39 44,-56 17,-19 36,-36 55,-51 20,-14 41,-26 63,-36 22,-10 45,-17 70,-22 24,-5 49,-7 75,-7 30,0 60,3 89,10 29,8 57,19 83,33l0 0c27,15 52,32 74,52 22,20 41,43 58,69 11,16 20,33 27,50 8,18 14,36 19,55 5,19 8,40 11,61 2,21 3,44 3,67l0 19 0 25 -26 0 -518 0zm354 -157c-5,-12 -11,-23 -17,-33 -11,-18 -24,-33 -40,-47 -16,-12 -33,-22 -52,-28 -19,-7 -39,-10 -62,-10 -23,0 -44,3 -64,10 -19,6 -37,16 -54,30 -17,13 -31,29 -42,47 -6,10 -12,20 -16,31l347 0zm27 -59c14,23 25,49 33,78l9 33 -34 0 -418 0 -34 0 9 -33c8,-28 19,-54 33,-77 15,-23 33,-43 54,-60 21,-17 45,-30 70,-39 25,-8 52,-13 80,-13 28,0 54,5 79,13 24,8 47,21 67,38 20,16 38,36 52,60z"/>
    <path fill="#D4E1E8" fill-rule="nonzero" d="M561 484c0,-16 0,16 0,-7l0 -340 -74 0 0 323 0 0 0 31 0 25 0 0 0 11c0,46 -21,87 -54,116 -33,30 -78,48 -127,48 -49,0 -94,-19 -127,-50 -33,-31 -54,-73 -54,-120l0 0 0 -5 -74 0 0 5 0 0c0,68 29,129 75,173 46,44 110,72 180,72 71,0 134,-28 181,-72 45,-44 74,-105 74,-173l0 0 0 -5 0 0 0 -25c0,-3 0,-5 0,-7z"/>
    <path fill="#D4E1E8" fill-rule="nonzero" d="M612 477c0,-1 0,-1 0,0l0 0z"/>
    <path fill="#D4E1E8" fill-rule="nonzero" d="M612 477c0,12 0,2 0,0l0 0c0,1 0,3 0,7l0 4 0 3 0 30 0 0c0,82 -34,156 -90,210 -55,53 -132,86 -216,86 -84,0 -161,-33 -216,-86 -56,-54 -90,-128 -90,-210l0 0 0 -30 0 -26 26 0 125 0 25 0 0 26 1 30 0 0c0,32 14,61 37,83 24,22 57,35 92,35 36,0 69,-13 93,-34 22,-20 37,-48 37,-78l0 -27 0 -9 0 -26 0 0 0 -5 0 0 0 -348 0 -26 25 0 125 0 26 0 0 26 0 365z"/>
    <path fill="#D4E1E8" fill-rule="nonzero" d="M1190 385c-14,-54 -40,-96 -76,-125 -36,-30 -79,-45 -130,-45 -51,0 -96,15 -134,46 -38,30 -64,72 -78,124l418 0zm-422 106c10,54 35,99 74,133 40,34 87,51 141,51 39,0 74,-10 106,-28 32,-19 58,-45 77,-79l133 0c-31,72 -73,128 -127,166 -54,39 -117,58 -189,58 -48,0 -93,-9 -133,-26 -40,-17 -76,-42 -109,-77 -30,-32 -54,-69 -71,-112 -18,-42 -26,-86 -26,-130 0,-46 8,-89 23,-130 16,-40 39,-76 70,-109 32,-36 69,-63 110,-81 41,-18 85,-27 134,-27 57,0 111,14 160,41 50,26 91,63 123,112 19,29 33,62 42,98 9,35 13,76 13,121l0 19 -551 0z"/>
    <path fill="#D4E1E8" fill-rule="nonzero" d="M586 477c0,5 0,9 0,14l0 0 0 30c0,150 -125,271 -280,271 -155,0 -280,-121 -280,-271l0 -30 125 0 0 30c0,79 71,144 155,144 84,0 155,-61 155,-138l0 -27 0 -9 0 0 0 -31 0 -348 125 0 0 365z"/>
    <path fill="#B08318" fill-rule="nonzero" d="M52 1001c0,15 -3,27 -9,35 -6,9 -15,13 -26,13 -5,0 -9,-1 -13,-3l0 -14c5,3 9,4 13,4 14,0 20,-11 20,-33l0 -91 15 0 0 89zm-7 -113c-3,0 -5,-1 -7,-3 -2,-2 -3,-4 -3,-7 0,-3 1,-5 3,-7 2,-2 4,-3 7,-3 3,0 5,1 7,3 2,2 3,4 3,7 0,3 -1,5 -3,7 -2,2 -4,3 -7,3z"/>
    <path id="1" fill="#B08318" fill-rule="nonzero" d="M122 1007c-14,0 -25,-4 -33,-13 -9,-9 -13,-20 -13,-35 0,-15 4,-28 13,-36 9,-9 20,-14 35,-14 14,0 25,5 32,13 8,9 12,21 12,36 0,15 -4,27 -13,36 -8,9 -19,13 -33,13zm1 -85c-10,0 -17,3 -23,10 -6,6 -8,15 -8,27 0,11 2,20 8,26 6,6 13,10 23,10 9,0 17,-4 22,-10 5,-6 8,-15 8,-27 0,-11 -3,-20 -8,-27 -5,-6 -13,-9 -22,-9z"/>
    <path id="2" fill="#B08318" fill-rule="nonzero" d="M186 1002l0 -16c8,6 17,9 27,9 13,0 20,-5 20,-14 0,-2 -1,-4 -2,-6 -1,-2 -2,-3 -4,-5 -2,-1 -4,-2 -7,-3 -3,-1 -5,-2 -8,-3 -5,-2 -8,-4 -11,-5 -3,-2 -6,-4 -8,-6 -2,-2 -4,-5 -5,-7 -1,-3 -1,-6 -1,-10 0,-4 1,-8 3,-11 2,-4 4,-6 8,-9 3,-2 7,-4 11,-5 4,-1 9,-2 13,-2 8,0 16,2 22,5l0 15c-7,-5 -15,-7 -24,-7 -3,0 -5,0 -7,1 -3,1 -4,1 -6,3 -2,1 -3,2 -4,4 -1,1 -1,3 -1,5 0,3 0,5 1,6 1,2 2,3 4,5 2,1 4,2 6,3 3,1 5,2 9,3 4,2 7,4 11,5 3,2 6,4 8,6 2,2 4,4 5,7 2,3 2,6 2,10 0,5 -1,9 -3,12 -2,3 -5,6 -8,8 -3,3 -7,4 -12,5 -4,2 -9,2 -14,2 -9,0 -18,-2 -25,-5z"/>
    <path id="3" fill="#B08318" fill-rule="nonzero" d="M315 1004c-4,2 -9,3 -14,3 -17,0 -25,-9 -25,-27l0 -56 -16 0 0 -12 16 0 0 -23 15 -5 0 28 24 0 0 12 -24 0 0 53c0,6 1,11 3,13 2,3 6,4 11,4 4,0 7,-1 10,-3l0 13z"/>
    <path id="4" fill="#B08318" fill-rule="nonzero" d="M408 962l-66 0c0,10 3,18 9,24 5,6 12,9 22,9 10,0 20,-4 29,-11l0 14c-9,6 -19,9 -33,9 -13,0 -24,-4 -31,-13 -8,-8 -11,-20 -11,-35 0,-15 4,-27 12,-36 8,-9 18,-14 31,-14 12,0 21,4 28,12 7,8 10,19 10,33l0 8zm-15 -13c0,-8 -2,-15 -6,-20 -5,-5 -10,-7 -18,-7 -7,0 -13,2 -18,8 -4,5 -8,11 -9,19l51 0z"/>
    <path id="5" fill="#B08318" fill-rule="nonzero" d="M508 1005l-15 0 0 -53c0,-20 -7,-30 -21,-30 -8,0 -14,3 -19,8 -5,6 -7,13 -7,22l0 53 -15 0 0 -93 15 0 0 15 0 0c7,-12 17,-18 31,-18 10,0 18,4 23,10 5,7 8,16 8,29l0 57z"/>
    <path id="6" fill="#B08318" fill-rule="nonzero" d="M531 1002l0 -16c8,6 17,9 27,9 13,0 19,-5 19,-14 0,-2 0,-4 -1,-6 -2,-2 -3,-3 -5,-5 -2,-1 -4,-2 -7,-3 -2,-1 -5,-2 -8,-3 -4,-2 -8,-4 -11,-5 -3,-2 -6,-4 -8,-6 -2,-2 -3,-5 -5,-7 -1,-3 -1,-6 -1,-10 0,-4 1,-8 3,-11 2,-4 5,-6 8,-9 3,-2 7,-4 11,-5 5,-1 9,-2 14,-2 8,0 15,2 21,5l0 15c-7,-5 -14,-7 -23,-7 -3,0 -6,0 -8,1 -2,1 -4,1 -6,3 -1,1 -3,2 -3,4 -1,1 -2,3 -2,5 0,3 1,5 2,6 0,2 2,3 3,5 2,1 4,2 7,3 2,1 5,2 8,3 4,2 8,4 11,5 3,2 6,4 8,6 3,2 4,4 6,7 1,3 2,6 2,10 0,5 -1,9 -3,12 -3,3 -5,6 -9,8 -3,3 -7,4 -11,5 -5,2 -9,2 -14,2 -10,0 -18,-2 -25,-5z"/>
    <path id="7" fill="#B08318" fill-rule="nonzero" d="M742 962l-66 0c0,10 3,18 8,24 6,6 13,9 22,9 11,0 20,-4 29,-11l0 14c-8,6 -19,9 -32,9 -13,0 -24,-4 -31,-13 -8,-8 -12,-20 -12,-35 0,-15 4,-27 13,-36 8,-9 18,-14 30,-14 13,0 22,4 29,12 6,8 10,19 10,33l0 8zm-16 -13c0,-8 -2,-15 -6,-20 -4,-5 -10,-7 -17,-7 -7,0 -13,2 -18,8 -5,5 -8,11 -9,19l50 0z"/>
    <path id="8" fill="#B08318" fill-rule="nonzero" d="M842 1005l-15 0 0 -53c0,-20 -7,-30 -22,-30 -7,0 -13,3 -18,8 -5,6 -8,13 -8,22l0 53 -15 0 0 -93 15 0 0 15 1 0c7,-12 17,-18 30,-18 11,0 18,4 24,10 5,7 8,16 8,29l0 57z"/>
    <path id="9" fill="#B08318" fill-rule="nonzero" d="M913 1004c-3,2 -8,3 -14,3 -16,0 -24,-9 -24,-27l0 -56 -16 0 0 -12 16 0 0 -23 15 -5 0 28 23 0 0 12 -23 0 0 53c0,6 1,11 3,13 2,3 6,4 11,4 3,0 7,-1 9,-3l0 13z"/>
    <path id="10" fill="#B08318" fill-rule="nonzero" d="M1007 962l-66 0c0,10 3,18 8,24 6,6 13,9 22,9 11,0 21,-4 29,-11l0 14c-8,6 -19,9 -32,9 -13,0 -24,-4 -31,-13 -8,-8 -12,-20 -12,-35 0,-15 5,-27 13,-36 8,-9 18,-14 31,-14 12,0 21,4 28,12 7,8 10,19 10,33l0 8zm-15 -13c0,-8 -3,-15 -7,-20 -4,-5 -9,-7 -17,-7 -7,0 -13,2 -18,8 -5,5 -8,11 -9,19l51 0z"/>
    <path id="11" fill="#B08318" fill-rule="nonzero" d="M1078 927c-2,-2 -6,-3 -11,-3 -7,0 -12,3 -16,9 -4,6 -7,14 -7,24l0 48 -15 0 0 -93 15 0 0 19 1 0c2,-7 5,-12 10,-16 4,-3 9,-5 14,-5 4,0 7,0 9,1l0 16z"/>
    <path id="12" fill="#B08318" fill-rule="nonzero" d="M1110 991l-1 0 0 57 -15 0 0 -136 15 0 0 16 1 0c7,-12 18,-19 32,-19 12,0 21,5 28,13 7,8 10,19 10,33 0,16 -4,29 -11,38 -8,9 -18,14 -31,14 -12,0 -22,-5 -28,-16zm-1 -37l0 13c0,8 3,14 8,19 5,6 11,9 19,9 9,0 16,-4 21,-11 5,-7 8,-16 8,-29 0,-10 -2,-18 -7,-24 -5,-6 -12,-9 -20,-9 -8,0 -15,3 -21,9 -5,6 -8,14 -8,23z"/>
    <path id="13" fill="#B08318" fill-rule="nonzero" d="M1253 927c-3,-2 -7,-3 -11,-3 -7,0 -12,3 -16,9 -5,6 -7,14 -7,24l0 48 -15 0 0 -93 15 0 0 19 1 0c2,-7 5,-12 9,-16 5,-3 10,-5 15,-5 4,0 7,0 9,1l0 16z"/>
    <path id="14" fill="#B08318" fill-rule="nonzero" d="M1277 888c-3,0 -5,-1 -7,-3 -2,-2 -3,-4 -3,-7 0,-3 1,-5 3,-7 2,-2 4,-3 7,-3 2,0 5,1 7,3 2,2 3,4 3,7 0,3 -1,5 -3,7 -2,2 -5,3 -7,3zm7 117l-15 0 0 -93 15 0 0 93z"/>
    <path id="15" fill="#B08318" fill-rule="nonzero" d="M1309 1002l0 -16c8,6 17,9 27,9 13,0 19,-5 19,-14 0,-2 0,-4 -1,-6 -2,-2 -3,-3 -5,-5 -2,-1 -4,-2 -7,-3 -2,-1 -5,-2 -8,-3 -4,-2 -8,-4 -11,-5 -3,-2 -6,-4 -8,-6 -2,-2 -4,-5 -5,-7 -1,-3 -1,-6 -1,-10 0,-4 1,-8 3,-11 2,-4 5,-6 8,-9 3,-2 7,-4 11,-5 5,-1 9,-2 14,-2 8,0 15,2 21,5l0 15c-7,-5 -14,-7 -23,-7 -3,0 -6,0 -8,1 -2,1 -4,1 -6,3 -1,1 -3,2 -4,4 0,1 -1,3 -1,5 0,3 1,5 1,6 1,2 3,3 4,5 2,1 4,2 7,3 2,1 5,2 8,3 4,2 8,4 11,5 3,2 6,4 8,6 3,2 4,4 6,7 1,3 2,6 2,10 0,5 -1,9 -3,12 -3,3 -5,6 -9,8 -3,3 -7,4 -11,5 -5,2 -10,2 -14,2 -10,0 -18,-2 -25,-5z"/>
    <path id="16" fill="#B08318" fill-rule="nonzero" d="M1469 962l-66 0c0,10 3,18 8,24 5,6 13,9 22,9 11,0 20,-4 29,-11l0 14c-8,6 -19,9 -32,9 -14,0 -24,-4 -32,-13 -7,-8 -11,-20 -11,-35 0,-15 4,-27 12,-36 9,-9 19,-14 31,-14 12,0 22,4 29,12 6,8 10,19 10,33l0 8zm-16 -13c0,-8 -2,-15 -6,-20 -4,-5 -10,-7 -17,-7 -7,0 -13,2 -18,8 -5,5 -8,11 -9,19l50 0z"/>
    <path id="17" fill="#D4E1E8" fill-rule="nonzero" d="M1675 1005l-15 0 0 -54c0,-10 -2,-18 -5,-22 -3,-5 -8,-7 -16,-7 -6,0 -12,3 -16,9 -5,6 -7,13 -7,21l0 53 -15 0 0 -56c0,-18 -7,-27 -21,-27 -7,0 -12,3 -16,8 -5,6 -7,13 -7,22l0 53 -15 0 0 -93 15 0 0 14 1 0c6,-11 16,-17 29,-17 6,0 12,2 16,6 5,3 8,8 10,14 7,-13 17,-20 31,-20 21,0 31,13 31,38l0 58z"/>
    <path id="18" fill="#D4E1E8" fill-rule="nonzero" d="M1778 962l-66 0c1,10 3,18 9,24 5,6 12,9 22,9 10,0 20,-4 29,-11l0 14c-8,6 -19,9 -33,9 -13,0 -23,-4 -31,-13 -7,-8 -11,-20 -11,-35 0,-15 4,-27 12,-36 8,-9 19,-14 31,-14 12,0 21,4 28,12 7,8 10,19 10,33l0 8zm-15 -13c0,-8 -2,-15 -6,-20 -4,-5 -10,-7 -17,-7 -8,0 -14,2 -18,8 -5,5 -8,11 -10,19l51 0z"/>
    <path id="19" fill="#D4E1E8" fill-rule="nonzero" d="M1880 1005l-14 0 0 -16 -1 0c-7,12 -17,18 -32,18 -12,0 -21,-4 -28,-12 -7,-9 -11,-20 -11,-35 0,-15 4,-27 12,-37 8,-9 18,-14 31,-14 13,0 22,5 28,15l1 0 0 -57 14 0 0 138zm-14 -42l0 -14c0,-8 -3,-14 -8,-19 -5,-5 -11,-8 -19,-8 -9,0 -16,3 -21,10 -6,7 -8,16 -8,28 0,10 2,19 7,25 5,6 12,10 20,10 9,0 16,-3 21,-9 5,-7 8,-14 8,-23z"/>
    <path id="20" fill="#D4E1E8" fill-rule="nonzero" d="M1918 888c-2,0 -5,-1 -6,-3 -2,-2 -3,-4 -3,-7 0,-3 1,-5 3,-7 1,-2 4,-3 6,-3 3,0 5,1 7,3 2,2 3,4 3,7 0,3 -1,5 -3,7 -2,2 -4,3 -7,3zm8 117l-15 0 0 -93 15 0 0 93z"/>
    <path id="21" fill="#D4E1E8" fill-rule="nonzero" d="M2023 1005l-15 0 0 -15 -1 0c-6,12 -16,17 -28,17 -10,0 -17,-2 -22,-7 -5,-5 -8,-12 -8,-20 0,-17 10,-27 31,-30l28 -4c0,-16 -7,-24 -19,-24 -12,0 -22,4 -31,11l0 -15c9,-6 20,-9 32,-9 22,0 33,12 33,35l0 61zm-15 -47l-23 3c-7,1 -12,2 -15,5 -4,2 -6,7 -6,13 0,5 2,8 5,11 3,3 8,5 13,5 8,0 14,-3 19,-8 4,-5 7,-12 7,-20l0 -9z"/>
    <path id="22" fill="#D4E1E8" fill-rule="nonzero" d="M2235 1005l-15 0 0 -54c0,-10 -2,-18 -5,-22 -3,-5 -9,-7 -16,-7 -7,0 -12,3 -16,9 -5,6 -7,13 -7,21l0 53 -15 0 0 -56c0,-18 -7,-27 -21,-27 -7,0 -12,3 -17,8 -4,6 -6,13 -6,22l0 53 -15 0 0 -93 15 0 0 14 0 0c7,-11 17,-17 29,-17 7,0 12,2 17,6 5,3 8,8 10,14 7,-13 17,-20 31,-20 20,0 31,13 31,38l0 58z"/>
    <path id="23" fill="#D4E1E8" fill-rule="nonzero" d="M2330 1005l-15 0 0 -15 -1 0c-6,12 -16,17 -28,17 -10,0 -17,-2 -22,-7 -5,-5 -8,-12 -8,-20 0,-17 10,-27 31,-30l28 -4c0,-16 -7,-24 -19,-24 -12,0 -22,4 -31,11l0 -15c9,-6 20,-9 32,-9 22,0 33,12 33,35l0 61zm-15 -47l-23 3c-7,1 -12,2 -15,5 -4,2 -6,7 -6,13 0,5 2,8 5,11 3,3 8,5 13,5 8,0 14,-3 19,-8 4,-5 7,-12 7,-20l0 -9z"/>
    <path id="24" fill="#D4E1E8" fill-rule="nonzero" d="M2435 1005l-15 0 0 -53c0,-20 -7,-30 -21,-30 -8,0 -14,3 -19,8 -5,6 -7,13 -7,22l0 53 -15 0 0 -93 15 0 0 15 0 0c7,-12 18,-18 31,-18 10,0 18,4 23,10 6,7 8,16 8,29l0 57z"/>
    <path id="25" fill="#D4E1E8" fill-rule="nonzero" d="M2530 1005l-15 0 0 -15 0 0c-6,12 -16,17 -29,17 -9,0 -16,-2 -21,-7 -6,-5 -8,-12 -8,-20 0,-17 10,-27 31,-30l27 -4c0,-16 -6,-24 -19,-24 -11,0 -21,4 -30,11l0 -15c9,-6 20,-9 32,-9 21,0 32,12 32,35l0 61zm-15 -47l-22 3c-7,1 -12,2 -16,5 -3,2 -5,7 -5,13 0,5 2,8 5,11 3,3 7,5 13,5 7,0 13,-3 18,-8 5,-5 7,-12 7,-20l0 -9z"/>
    <path id="26" fill="#D4E1E8" fill-rule="nonzero" d="M2638 997c0,35 -16,52 -49,52 -11,0 -22,-2 -30,-7l0 -15c10,6 20,9 30,9 23,0 34,-12 34,-37l0 -10 0 0c-7,12 -18,18 -32,18 -12,0 -21,-4 -28,-12 -7,-9 -11,-20 -11,-34 0,-16 4,-28 12,-38 7,-9 18,-14 31,-14 13,0 22,5 28,15l0 0 0 -12 15 0 0 85zm-15 -34l0 -14c0,-7 -2,-14 -7,-19 -5,-5 -11,-8 -19,-8 -9,0 -16,3 -22,10 -5,7 -7,16 -7,28 0,11 2,19 7,25 5,6 12,10 20,10 8,0 15,-3 20,-9 6,-6 8,-14 8,-23z"/>
    <path id="27" fill="#D4E1E8" fill-rule="nonzero" d="M2744 962l-66 0c0,10 3,18 8,24 5,6 13,9 22,9 11,0 20,-4 29,-11l0 14c-8,6 -19,9 -32,9 -14,0 -24,-4 -31,-13 -8,-8 -12,-20 -12,-35 0,-15 4,-27 13,-36 8,-9 18,-14 30,-14 12,0 22,4 29,12 6,8 10,19 10,33l0 8zm-16 -13c0,-8 -2,-15 -6,-20 -4,-5 -10,-7 -17,-7 -7,0 -13,2 -18,8 -5,5 -8,11 -9,19l50 0z"/>
    <path id="28" fill="#D4E1E8" fill-rule="nonzero" d="M2815 927c-3,-2 -6,-3 -11,-3 -7,0 -12,3 -16,9 -5,6 -7,14 -7,24l0 48 -15 0 0 -93 15 0 0 19 1 0c2,-7 5,-12 9,-16 5,-3 10,-5 15,-5 4,0 7,0 9,1l0 16z"/>
   </g>
   <rect fill="none" width="2820" height="1426"/>
  </g>
 </g>
</svg>
